<mxfile host="Electron" agent="Mozilla/5.0 (Windows NT 10.0; Win64; x64) AppleWebKit/537.36 (KHTML, like Gecko) draw.io/28.0.6 Chrome/138.0.7204.100 Electron/37.2.3 Safari/537.36" version="28.0.6">
  <diagram name="Page-1" id="nWLQT9hI24cluVNdj5tz">
    <mxGraphModel dx="1042" dy="674" grid="1" gridSize="10" guides="1" tooltips="1" connect="1" arrows="1" fold="1" page="1" pageScale="1" pageWidth="850" pageHeight="1100" math="0" shadow="0">
      <root>
        <mxCell id="0" />
        <mxCell id="1" parent="0" />
        <mxCell id="LJig0QiRJ6hkmt3Dd3uv-1" value="" style="rounded=0;whiteSpace=wrap;html=1;dashed=1;fillColor=none;movable=1;resizable=1;rotatable=1;deletable=1;editable=1;locked=0;connectable=1;" parent="1" vertex="1">
          <mxGeometry x="30" y="70" width="130" height="570" as="geometry" />
        </mxCell>
        <mxCell id="LJig0QiRJ6hkmt3Dd3uv-2" value="&lt;font style=&quot;font-size: 16px;&quot;&gt;&lt;b&gt;Sources&lt;/b&gt;&lt;/font&gt;" style="rounded=0;whiteSpace=wrap;html=1;strokeColor=none;" parent="1" vertex="1">
          <mxGeometry x="50" y="45" width="90" height="50" as="geometry" />
        </mxCell>
        <mxCell id="LJig0QiRJ6hkmt3Dd3uv-3" value="" style="rounded=0;whiteSpace=wrap;html=1;fillColor=none;dashed=1;movable=0;resizable=0;rotatable=0;deletable=0;editable=0;locked=1;connectable=0;" parent="1" vertex="1">
          <mxGeometry x="200" y="70" width="430" height="570" as="geometry" />
        </mxCell>
        <mxCell id="LJig0QiRJ6hkmt3Dd3uv-4" value="" style="rounded=0;whiteSpace=wrap;html=1;dashed=1;fillColor=none;movable=1;resizable=1;rotatable=1;deletable=1;editable=1;locked=0;connectable=1;" parent="1" vertex="1">
          <mxGeometry x="680" y="70" width="130" height="570" as="geometry" />
        </mxCell>
        <mxCell id="LJig0QiRJ6hkmt3Dd3uv-5" value="&lt;font style=&quot;font-size: 16px;&quot;&gt;&lt;b&gt;Consumers&lt;/b&gt;&lt;/font&gt;" style="rounded=0;whiteSpace=wrap;html=1;strokeColor=none;" parent="1" vertex="1">
          <mxGeometry x="690" y="45" width="110" height="50" as="geometry" />
        </mxCell>
        <mxCell id="LJig0QiRJ6hkmt3Dd3uv-7" value="&lt;font style=&quot;font-size: 16px;&quot;&gt;&lt;b&gt;Data Warehouse&lt;/b&gt;&lt;/font&gt;" style="rounded=0;whiteSpace=wrap;html=1;strokeColor=none;" parent="1" vertex="1">
          <mxGeometry x="300" y="50" width="210" height="40" as="geometry" />
        </mxCell>
        <mxCell id="LJig0QiRJ6hkmt3Dd3uv-8" value="&lt;b&gt;Bronze Layer&lt;/b&gt;" style="rounded=0;whiteSpace=wrap;html=1;fillColor=#a20025;strokeColor=#6F0000;fontColor=#ffffff;" parent="1" vertex="1">
          <mxGeometry x="230" y="122" width="117" height="30" as="geometry" />
        </mxCell>
        <mxCell id="LJig0QiRJ6hkmt3Dd3uv-9" value="" style="rounded=0;whiteSpace=wrap;html=1;fillColor=none;strokeColor=#660033;" parent="1" vertex="1">
          <mxGeometry x="230" y="158" width="117" height="442" as="geometry" />
        </mxCell>
        <mxCell id="LJig0QiRJ6hkmt3Dd3uv-11" value="&lt;b&gt;Silver Layer&lt;/b&gt;" style="rounded=0;whiteSpace=wrap;html=1;fillColor=#f5f5f5;strokeColor=light-dark(#f5f5f5, #959595);fontColor=#333333;" parent="1" vertex="1">
          <mxGeometry x="367" y="122" width="113" height="30" as="geometry" />
        </mxCell>
        <mxCell id="LJig0QiRJ6hkmt3Dd3uv-12" value="" style="rounded=0;whiteSpace=wrap;html=1;fillColor=none;strokeColor=#797979;" parent="1" vertex="1">
          <mxGeometry x="367" y="158" width="113" height="442" as="geometry" />
        </mxCell>
        <mxCell id="LJig0QiRJ6hkmt3Dd3uv-13" value="&lt;b&gt;Gold Layer&lt;/b&gt;" style="rounded=0;whiteSpace=wrap;html=1;fillColor=#ffcd28;strokeColor=#d79b00;gradientColor=#ffa500;" parent="1" vertex="1">
          <mxGeometry x="499" y="122" width="111" height="30" as="geometry" />
        </mxCell>
        <mxCell id="LJig0QiRJ6hkmt3Dd3uv-14" value="" style="rounded=0;whiteSpace=wrap;html=1;fillColor=none;strokeColor=#FFD966;" parent="1" vertex="1">
          <mxGeometry x="499" y="158" width="111" height="442" as="geometry" />
        </mxCell>
        <mxCell id="LJig0QiRJ6hkmt3Dd3uv-15" value="&lt;b&gt;CRM&lt;/b&gt;" style="image;aspect=fixed;html=1;points=[];align=center;fontSize=12;image=img/lib/azure2/general/Folder_Blank.svg;" parent="1" vertex="1">
          <mxGeometry x="71.81" y="149" width="35.29" height="28.64" as="geometry" />
        </mxCell>
        <mxCell id="LJig0QiRJ6hkmt3Dd3uv-16" value="" style="image;aspect=fixed;html=1;points=[];align=center;fontSize=12;image=img/lib/azure2/general/Media_File.svg;" parent="1" vertex="1">
          <mxGeometry x="95.85000000000002" y="160.64" width="16.25" height="20" as="geometry" />
        </mxCell>
        <mxCell id="LJig0QiRJ6hkmt3Dd3uv-19" value="&lt;b&gt;ERP&lt;/b&gt;" style="image;aspect=fixed;html=1;points=[];align=center;fontSize=12;image=img/lib/azure2/general/Folder_Blank.svg;" parent="1" vertex="1">
          <mxGeometry x="72.81" y="234" width="35.29" height="28.64" as="geometry" />
        </mxCell>
        <mxCell id="LJig0QiRJ6hkmt3Dd3uv-20" value="" style="image;aspect=fixed;html=1;points=[];align=center;fontSize=12;image=img/lib/azure2/general/Media_File.svg;" parent="1" vertex="1">
          <mxGeometry x="93.85000000000002" y="245.64" width="16.25" height="20" as="geometry" />
        </mxCell>
        <mxCell id="LJig0QiRJ6hkmt3Dd3uv-24" value="" style="endArrow=none;html=1;rounded=0;fillColor=#e1d5e7;strokeColor=#9673a6;" parent="1" edge="1">
          <mxGeometry width="50" height="50" relative="1" as="geometry">
            <mxPoint x="46.209999999999994" y="340" as="sourcePoint" />
            <mxPoint x="144.48" y="340" as="targetPoint" />
          </mxGeometry>
        </mxCell>
        <mxCell id="LJig0QiRJ6hkmt3Dd3uv-25" value="&lt;font style=&quot;font-size: 10px;&quot;&gt;&lt;b style=&quot;&quot;&gt;Object type&lt;/b&gt;: CSV File&lt;/font&gt;" style="text;html=1;align=center;verticalAlign=middle;whiteSpace=wrap;rounded=0;" parent="1" vertex="1">
          <mxGeometry x="30.45000000000001" y="360" width="120" height="30" as="geometry" />
        </mxCell>
        <mxCell id="LJig0QiRJ6hkmt3Dd3uv-26" value="&lt;font style=&quot;font-size: 10px;&quot;&gt;&lt;b style=&quot;&quot;&gt;Interface&lt;/b&gt;: File in Folders&lt;/font&gt;" style="text;html=1;align=center;verticalAlign=middle;whiteSpace=wrap;rounded=0;" parent="1" vertex="1">
          <mxGeometry x="38" y="390" width="120" height="30" as="geometry" />
        </mxCell>
        <mxCell id="LJig0QiRJ6hkmt3Dd3uv-27" value="" style="shape=datastore;whiteSpace=wrap;html=1;fillColor=#a20025;strokeColor=#6F0000;fontColor=#ffffff;fillOpacity=73;" parent="1" vertex="1">
          <mxGeometry x="264" y="225" width="50" height="45" as="geometry" />
        </mxCell>
        <mxCell id="LJig0QiRJ6hkmt3Dd3uv-28" value="" style="shape=datastore;whiteSpace=wrap;html=1;fillColor=none;strokeColor=#666666;fontColor=#333333;" parent="1" vertex="1">
          <mxGeometry x="390" y="227.5" width="50" height="45" as="geometry" />
        </mxCell>
        <mxCell id="LJig0QiRJ6hkmt3Dd3uv-29" value="" style="shape=datastore;whiteSpace=wrap;html=1;fillColor=#ffcd28;strokeColor=#d79b00;gradientColor=#ffa500;" parent="1" vertex="1">
          <mxGeometry x="524" y="227.5" width="50" height="45" as="geometry" />
        </mxCell>
        <mxCell id="LJig0QiRJ6hkmt3Dd3uv-31" value="" style="shape=singleArrow;whiteSpace=wrap;html=1;arrowWidth=0.34444342719184057;arrowSize=0.3814332824707011;fillColor=#dae8fc;strokeColor=#6c8ebf;" parent="1" vertex="1">
          <mxGeometry x="210" y="238" width="40" height="28.64" as="geometry" />
        </mxCell>
        <mxCell id="LJig0QiRJ6hkmt3Dd3uv-32" value="" style="shape=singleArrow;whiteSpace=wrap;html=1;arrowWidth=0.34444342719184057;arrowSize=0.3814332824707011;fillColor=#dae8fc;strokeColor=#6c8ebf;" parent="1" vertex="1">
          <mxGeometry x="337" y="238" width="40" height="28.64" as="geometry" />
        </mxCell>
        <mxCell id="LJig0QiRJ6hkmt3Dd3uv-33" value="" style="shape=singleArrow;whiteSpace=wrap;html=1;arrowWidth=0.34444342719184057;arrowSize=0.3814332824707011;fillColor=#dae8fc;strokeColor=#6c8ebf;" parent="1" vertex="1">
          <mxGeometry x="474" y="238" width="40" height="28.64" as="geometry" />
        </mxCell>
        <mxCell id="smuFCh-GOMz9ZFpeUhQm-2" value="&lt;font style=&quot;font-size: 10px;&quot;&gt;&lt;b&gt;Raw Data&lt;/b&gt;&lt;/font&gt;" style="text;html=1;align=center;verticalAlign=middle;whiteSpace=wrap;rounded=0;" parent="1" vertex="1">
          <mxGeometry x="259" y="290" width="60" height="30" as="geometry" />
        </mxCell>
        <mxCell id="smuFCh-GOMz9ZFpeUhQm-3" value="&lt;font style=&quot;font-size: 10px;&quot;&gt;&lt;b&gt;Cleaned Standardized Data&lt;/b&gt;&lt;/font&gt;" style="text;html=1;align=center;verticalAlign=middle;whiteSpace=wrap;rounded=0;" parent="1" vertex="1">
          <mxGeometry x="385" y="297" width="60" height="40" as="geometry" />
        </mxCell>
        <mxCell id="smuFCh-GOMz9ZFpeUhQm-4" value="&lt;font style=&quot;font-size: 10px;&quot;&gt;&lt;b&gt;Business- Ready Data&lt;/b&gt;&lt;/font&gt;" style="text;html=1;align=center;verticalAlign=middle;whiteSpace=wrap;rounded=0;" parent="1" vertex="1">
          <mxGeometry x="499" y="300" width="100" height="40" as="geometry" />
        </mxCell>
        <mxCell id="smuFCh-GOMz9ZFpeUhQm-5" value="&lt;font style=&quot;font-size: 10px;&quot;&gt;&lt;b style=&quot;&quot;&gt;Object type&lt;/b&gt;: Table&lt;/font&gt;" style="text;html=1;align=center;verticalAlign=middle;whiteSpace=wrap;rounded=0;" parent="1" vertex="1">
          <mxGeometry x="240" y="350" width="93" height="30" as="geometry" />
        </mxCell>
        <mxCell id="smuFCh-GOMz9ZFpeUhQm-6" value="" style="endArrow=none;html=1;rounded=0;fillColor=#e1d5e7;strokeColor=#9673a6;" parent="1" edge="1">
          <mxGeometry width="50" height="50" relative="1" as="geometry">
            <mxPoint x="239.85999999999999" y="340" as="sourcePoint" />
            <mxPoint x="338.13" y="340" as="targetPoint" />
          </mxGeometry>
        </mxCell>
        <mxCell id="smuFCh-GOMz9ZFpeUhQm-7" value="" style="endArrow=none;html=1;rounded=0;fillColor=#e1d5e7;strokeColor=#9673a6;" parent="1" edge="1">
          <mxGeometry width="50" height="50" relative="1" as="geometry">
            <mxPoint x="372.73" y="340" as="sourcePoint" />
            <mxPoint x="471" y="340" as="targetPoint" />
          </mxGeometry>
        </mxCell>
        <mxCell id="smuFCh-GOMz9ZFpeUhQm-8" value="" style="endArrow=none;html=1;rounded=0;fillColor=#e1d5e7;strokeColor=#9673a6;" parent="1" edge="1">
          <mxGeometry width="50" height="50" relative="1" as="geometry">
            <mxPoint x="502.73" y="340" as="sourcePoint" />
            <mxPoint x="601" y="340" as="targetPoint" />
          </mxGeometry>
        </mxCell>
        <mxCell id="smuFCh-GOMz9ZFpeUhQm-10" value="&lt;font style=&quot;font-size: 10px;&quot;&gt;&lt;b style=&quot;&quot;&gt;Object type&lt;/b&gt;: Table&lt;/font&gt;" style="text;html=1;align=center;verticalAlign=middle;whiteSpace=wrap;rounded=0;" parent="1" vertex="1">
          <mxGeometry x="369" y="350" width="93" height="30" as="geometry" />
        </mxCell>
        <mxCell id="smuFCh-GOMz9ZFpeUhQm-11" value="&lt;font style=&quot;font-size: 10px;&quot;&gt;&lt;b style=&quot;&quot;&gt;Load&lt;/b&gt;: &lt;br&gt;&lt;ul&gt;&lt;li&gt;Batch Processing&lt;/li&gt;&lt;li&gt;Full Load ( Trunc &amp;amp; insert)&lt;/li&gt;&lt;/ul&gt;&lt;/font&gt;" style="text;html=1;align=center;verticalAlign=middle;whiteSpace=wrap;rounded=0;" parent="1" vertex="1">
          <mxGeometry x="343.5" y="400" width="126.5" height="30" as="geometry" />
        </mxCell>
        <mxCell id="smuFCh-GOMz9ZFpeUhQm-14" value="&lt;font style=&quot;font-size: 10px;&quot;&gt;&lt;b style=&quot;&quot;&gt;Data Model&lt;/b&gt;:&amp;nbsp;&lt;/font&gt;&lt;div&gt;&lt;font style=&quot;font-size: 10px;&quot;&gt;None ( As is)&lt;/font&gt;&lt;/div&gt;" style="text;html=1;align=center;verticalAlign=middle;whiteSpace=wrap;rounded=0;" parent="1" vertex="1">
          <mxGeometry x="377" y="550" width="93" height="30" as="geometry" />
        </mxCell>
        <mxCell id="smuFCh-GOMz9ZFpeUhQm-15" value="&lt;font style=&quot;font-size: 10px;&quot;&gt;&lt;b style=&quot;&quot;&gt;Load&lt;/b&gt;: &lt;br&gt;&lt;ul&gt;&lt;li&gt;Batch Processing&lt;/li&gt;&lt;li&gt;Full Load ( Trunc &amp;amp; insert)&lt;/li&gt;&lt;/ul&gt;&lt;/font&gt;" style="text;html=1;align=center;verticalAlign=middle;whiteSpace=wrap;rounded=0;" parent="1" vertex="1">
          <mxGeometry x="213.5" y="401" width="126.5" height="30" as="geometry" />
        </mxCell>
        <mxCell id="smuFCh-GOMz9ZFpeUhQm-16" value="&lt;font style=&quot;font-size: 10px;&quot;&gt;&lt;b style=&quot;&quot;&gt;Data Model&lt;/b&gt;:&amp;nbsp;&lt;/font&gt;&lt;div&gt;&lt;font style=&quot;font-size: 10px;&quot;&gt;None ( As is)&lt;/font&gt;&lt;/div&gt;" style="text;html=1;align=center;verticalAlign=middle;whiteSpace=wrap;rounded=0;" parent="1" vertex="1">
          <mxGeometry x="243.5" y="470" width="93" height="30" as="geometry" />
        </mxCell>
        <mxCell id="smuFCh-GOMz9ZFpeUhQm-17" value="&lt;font style=&quot;font-size: 10px;&quot;&gt;&lt;b style=&quot;&quot;&gt;No &lt;/b&gt;Transformations&lt;/font&gt;" style="text;html=1;align=center;verticalAlign=middle;whiteSpace=wrap;rounded=0;" parent="1" vertex="1">
          <mxGeometry x="234" y="440" width="120" height="30" as="geometry" />
        </mxCell>
        <mxCell id="smuFCh-GOMz9ZFpeUhQm-18" value="&lt;font style=&quot;font-size: 10px;&quot;&gt;&lt;b style=&quot;&quot;&gt;Transformations&lt;/b&gt;: &lt;br&gt;&lt;div style=&quot;text-align: left;&quot;&gt;&lt;ul&gt;&lt;li&gt;&lt;span style=&quot;background-color: transparent; color: light-dark(rgb(0, 0, 0), rgb(255, 255, 255));&quot;&gt;Data Cleaning&lt;/span&gt;&lt;/li&gt;&lt;li&gt;&lt;span style=&quot;background-color: transparent; color: light-dark(rgb(0, 0, 0), rgb(255, 255, 255));&quot;&gt;Data Standardization&lt;/span&gt;&lt;/li&gt;&lt;li&gt;&lt;span style=&quot;background-color: transparent; color: light-dark(rgb(0, 0, 0), rgb(255, 255, 255));&quot;&gt;Data Normalization&lt;/span&gt;&lt;/li&gt;&lt;li&gt;&lt;span style=&quot;background-color: transparent; color: light-dark(rgb(0, 0, 0), rgb(255, 255, 255));&quot;&gt;Derived Columns&lt;/span&gt;&lt;/li&gt;&lt;li&gt;&lt;span style=&quot;background-color: transparent; color: light-dark(rgb(0, 0, 0), rgb(255, 255, 255));&quot;&gt;Data Enrichment&lt;/span&gt;&lt;/li&gt;&lt;/ul&gt;&lt;/div&gt;&lt;/font&gt;" style="text;html=1;align=center;verticalAlign=middle;whiteSpace=wrap;rounded=0;" parent="1" vertex="1">
          <mxGeometry x="342.5" y="480" width="136.25" height="30" as="geometry" />
        </mxCell>
        <mxCell id="smuFCh-GOMz9ZFpeUhQm-19" value="&lt;font style=&quot;font-size: 10px;&quot;&gt;&lt;b style=&quot;&quot;&gt;Object type&lt;/b&gt;: Table&lt;/font&gt;" style="text;html=1;align=center;verticalAlign=middle;whiteSpace=wrap;rounded=0;" parent="1" vertex="1">
          <mxGeometry x="506" y="350" width="93" height="30" as="geometry" />
        </mxCell>
        <mxCell id="smuFCh-GOMz9ZFpeUhQm-20" value="&lt;font style=&quot;font-size: 10px;&quot;&gt;No &lt;b style=&quot;&quot;&gt;Load&lt;/b&gt;:&lt;/font&gt;" style="text;html=1;align=center;verticalAlign=middle;whiteSpace=wrap;rounded=0;" parent="1" vertex="1">
          <mxGeometry x="483.5" y="390" width="126.5" height="30" as="geometry" />
        </mxCell>
        <mxCell id="smuFCh-GOMz9ZFpeUhQm-21" value="&lt;font style=&quot;font-size: 10px;&quot;&gt;&lt;b style=&quot;&quot;&gt;Transformations&lt;/b&gt;: &lt;br&gt;&lt;div style=&quot;text-align: left;&quot;&gt;&lt;ul&gt;&lt;li&gt;Data Integration&lt;/li&gt;&lt;li&gt;Aggregations&lt;/li&gt;&lt;li&gt;Business Logics&lt;/li&gt;&lt;/ul&gt;&lt;/div&gt;&lt;/font&gt;" style="text;html=1;align=center;verticalAlign=middle;whiteSpace=wrap;rounded=0;" parent="1" vertex="1">
          <mxGeometry x="480" y="450" width="136.25" height="30" as="geometry" />
        </mxCell>
        <mxCell id="smuFCh-GOMz9ZFpeUhQm-22" value="&lt;font style=&quot;font-size: 10px;&quot;&gt;&lt;b style=&quot;&quot;&gt;Data Model&lt;/b&gt;:&amp;nbsp;&lt;/font&gt;&lt;div&gt;&lt;ul&gt;&lt;li&gt;&lt;font style=&quot;font-size: 10px;&quot;&gt;Star Schema&lt;/font&gt;&lt;/li&gt;&lt;li&gt;&lt;font style=&quot;font-size: 10px;&quot;&gt;Flat Table&lt;/font&gt;&lt;/li&gt;&lt;li&gt;&lt;font style=&quot;font-size: 10px;&quot;&gt;Aggregated Table&lt;/font&gt;&lt;/li&gt;&lt;/ul&gt;&lt;/div&gt;" style="text;html=1;align=left;verticalAlign=middle;whiteSpace=wrap;rounded=0;" parent="1" vertex="1">
          <mxGeometry x="504.25" y="543" width="112" height="30" as="geometry" />
        </mxCell>
        <mxCell id="smuFCh-GOMz9ZFpeUhQm-23" value="" style="image;aspect=fixed;html=1;points=[];align=center;fontSize=12;image=img/lib/azure2/analytics/Power_BI_Embedded.svg;" parent="1" vertex="1">
          <mxGeometry x="699.23" y="177.27999999999997" width="40.77" height="54.36" as="geometry" />
        </mxCell>
        <mxCell id="smuFCh-GOMz9ZFpeUhQm-24" value="" style="verticalLabelPosition=bottom;aspect=fixed;html=1;shape=mxgraph.salesforce.analytics;" parent="1" vertex="1">
          <mxGeometry x="740" y="176" width="48.98" height="48" as="geometry" />
        </mxCell>
        <mxCell id="smuFCh-GOMz9ZFpeUhQm-25" value="&lt;font style=&quot;font-size: 12px;&quot;&gt;BI &amp;amp; Reporting&lt;/font&gt;" style="text;strokeColor=none;fillColor=none;html=1;fontSize=24;fontStyle=1;verticalAlign=middle;align=center;" parent="1" vertex="1">
          <mxGeometry x="699.23" y="250" width="100" as="geometry" />
        </mxCell>
        <mxCell id="smuFCh-GOMz9ZFpeUhQm-27" value="" style="sketch=0;pointerEvents=1;shadow=0;dashed=0;html=1;strokeColor=none;labelPosition=center;verticalLabelPosition=bottom;verticalAlign=top;align=center;fillColor=#0050ef;shape=mxgraph.mscae.oms.log_search;fontColor=#ffffff;" parent="1" vertex="1">
          <mxGeometry x="723.5" y="292" width="30" height="30" as="geometry" />
        </mxCell>
        <mxCell id="smuFCh-GOMz9ZFpeUhQm-28" value="&lt;font style=&quot;font-size: 12px;&quot;&gt;Adhoc SQL Queries&lt;/font&gt;" style="text;strokeColor=none;fillColor=none;html=1;fontSize=24;fontStyle=1;verticalAlign=middle;align=center;" parent="1" vertex="1">
          <mxGeometry x="687.5" y="308" width="115" height="40" as="geometry" />
        </mxCell>
        <mxCell id="smuFCh-GOMz9ZFpeUhQm-29" value="" style="image;aspect=fixed;html=1;points=[];align=center;fontSize=12;image=img/lib/azure2/compute/Metrics_Advisor.svg;" parent="1" vertex="1">
          <mxGeometry x="723.5" y="378" width="40.29" height="50" as="geometry" />
        </mxCell>
        <mxCell id="smuFCh-GOMz9ZFpeUhQm-30" value="&lt;font style=&quot;font-size: 12px;&quot;&gt;Machine Learning&lt;/font&gt;" style="text;strokeColor=none;fillColor=none;html=1;fontSize=24;fontStyle=1;verticalAlign=middle;align=center;" parent="1" vertex="1">
          <mxGeometry x="687.5" y="418" width="115" height="40" as="geometry" />
        </mxCell>
        <mxCell id="QeHIF13l58VBDUYwM4YO-1" value="" style="shape=singleArrow;whiteSpace=wrap;html=1;arrowWidth=0.34444342719184057;arrowSize=0.3814332824707011;fillColor=#dae8fc;strokeColor=#6c8ebf;" vertex="1" parent="1">
          <mxGeometry x="659.23" y="235.68" width="40" height="28.64" as="geometry" />
        </mxCell>
      </root>
    </mxGraphModel>
  </diagram>
</mxfile>
